<?xml version="1.0" standalone="no"?>
<!DOCTYPE svg PUBLIC "-//W3C//DTD SVG 20010904//EN"
 "http://www.w3.org/TR/2001/REC-SVG-20010904/DTD/svg10.dtd">
<svg version="1.0" xmlns="http://www.w3.org/2000/svg"
 width="225.000000pt" height="225.000000pt" viewBox="0 0 225.000000 225.000000"
 preserveAspectRatio="xMidYMid meet">
<metadata>
Created by potrace 1.11, written by Peter Selinger 2001-2013
</metadata>
<g transform="translate(0.000000,225.000000) scale(0.100000,-0.100000)"
fill="#000000" stroke="none">
<path d="M0 1125 l0 -1125 1125 0 1125 0 0 1125 0 1125 -1125 0 -1125 0 0
-1125z m591 488 c30 -14 54 -33 70 -59 22 -36 24 -51 29 -219 5 -144 9 -186
23 -212 21 -40 15 -55 -30 -79 l-35 -19 -33 38 c-29 33 -34 36 -46 21 -7 -8
-34 -26 -61 -40 -60 -31 -156 -33 -208 -5 -96 50 -115 189 -39 275 47 55 101
70 221 63 l101 -5 -6 53 c-3 29 -11 62 -18 74 -29 45 -118 53 -223 21 -37 -12
-71 -18 -76 -15 -15 9 -12 62 5 78 13 14 70 36 130 51 42 10 151 -1 196 -21z
m1308 16 c66 -14 101 -42 101 -80 0 -38 -15 -43 -69 -24 -52 18 -147 19 -181
2 -13 -7 -29 -24 -34 -39 -17 -47 11 -72 118 -108 52 -17 110 -41 128 -53 47
-32 70 -81 65 -139 -6 -65 -40 -113 -106 -145 -46 -23 -66 -27 -135 -26 -77 1
-153 20 -183 44 -15 13 -18 75 -4 84 6 3 37 -4 70 -15 110 -37 231 -17 239 39
9 61 -26 89 -148 121 -98 25 -160 90 -160 167 0 55 12 83 50 121 53 54 148 73
249 51z m-1031 -26 c5 -10 31 -106 57 -213 27 -107 51 -198 55 -202 3 -5 28
85 54 200 27 114 53 213 59 220 5 6 31 12 57 12 26 0 52 -6 57 -12 6 -7 32
-106 59 -220 26 -115 51 -208 54 -208 3 0 29 93 58 207 29 114 58 213 64 220
6 7 31 13 59 13 39 0 49 -3 49 -17 0 -19 -157 -529 -172 -556 -7 -14 -19 -17
-61 -15 -65 4 -64 3 -117 228 -23 96 -44 184 -47 195 -3 11 -26 -67 -56 -190
-27 -116 -54 -216 -59 -222 -6 -7 -32 -13 -58 -13 -26 0 -52 6 -58 13 -11 14
-172 538 -172 562 0 23 106 22 118 -2z m1221 -730 c21 -14 23 -20 18 -72 -9
-99 -73 -230 -129 -265 -30 -19 -30 1 1 92 17 49 31 108 31 130 0 40 -1 42
-41 52 -28 8 -68 8 -127 2 -90 -10 -114 -4 -93 22 46 55 274 81 340 39z
m-1823 -73 c501 -250 1072 -271 1611 -58 29 11 35 10 50 -6 17 -17 16 -19 -17
-47 -88 -76 -285 -161 -475 -205 -110 -26 -137 -28 -315 -29 -168 0 -209 3
-299 23 -128 29 -251 72 -356 124 -153 77 -347 221 -331 246 4 7 8 12 10 12 1
0 56 -27 122 -60z"/>
<path d="M390 1283 c-65 -33 -76 -111 -23 -153 46 -36 133 -20 182 33 25 27
41 110 23 121 -5 3 -40 8 -78 11 -55 5 -76 3 -104 -12z"/>
</g>
</svg>
